<svg width="600" height="120" viewBox="0 0 600 120" xmlns="http://www.w3.org/2000/svg">
  <g transform="translate(10, 10)">
    <circle cx="50" cy="50" r="10" fill="#10B981" stroke="#059669" stroke-width="2"/>
    <circle cx="50" cy="10" r="8" fill="#10B981" stroke="#059669" stroke-width="1.5"/>
    <line x1="50" y1="18" x2="50" y2="40" stroke="#10B981" stroke-width="2"/>
    <circle cx="80" cy="20" r="8" fill="#10B981" stroke="#059669" stroke-width="1.5"/>
    <line x1="73" y1="26" x2="57" y2="43" stroke="#10B981" stroke-width="2"/>
    <circle cx="90" cy="50" r="8" fill="#10B981" stroke="#059669" stroke-width="1.5"/>
    <line x1="82" y1="50" x2="60" y2="50" stroke="#10B981" stroke-width="2"/>
    <circle cx="80" cy="80" r="8" fill="#10B981" stroke="#059669" stroke-width="1.5"/>
    <line x1="73" y1="74" x2="57" y2="57" stroke="#10B981" stroke-width="2"/>
    <circle cx="50" cy="90" r="8" fill="#10B981" stroke="#059669" stroke-width="1.5"/>
    <line x1="50" y1="82" x2="50" y2="60" stroke="#10B981" stroke-width="2"/>
    <circle cx="20" cy="80" r="8" fill="#10B981" stroke="#059669" stroke-width="1.5"/>
    <line x1="27" y1="74" x2="43" y2="57" stroke="#10B981" stroke-width="2"/>
    <circle cx="10" cy="50" r="8" fill="#10B981" stroke="#059669" stroke-width="1.5"/>
    <line x1="18" y1="50" x2="40" y2="50" stroke="#10B981" stroke-width="2"/>
    <circle cx="20" cy="20" r="8" fill="#10B981" stroke="#059669" stroke-width="1.5"/>
    <line x1="27" y1="26" x2="43" y2="43" stroke="#10B981" stroke-width="2"/>
  </g>
  <text x="130" y="75" font-family="Inter, Segoe UI, system-ui, sans-serif" font-size="48" font-weight="700" fill="white">Code<tspan fill="#10B981">Flow</tspan></text>
</svg>